# xmcd CD database file
#
# Track frame offsets:
#	150
#	20995
#	55855
#	97227
#	122482
#	144810
#
# Disc length: 2623 seconds
#
# Revision: 4
# Processed by: cddbd v1.5.2PL0 Copyright (c) Steve Scherf et al.
# Submitted via: CDex 1.51
#
DISCID=4f0a3d06
DTITLE=Joe Turner with Pee Wee Crayton and Sonny Stitt - Everyday I Have The Blues
DYEAR=1978
DGENRE=Blues
TTITLE0=Stormy Monday
TTITLE1=Piney Brown (K.C.)
TTITLE2=Martin Luther King Southside
TTITLE3=Everyday I Have The Blues
TTITLE4=Shake, Rattle And Roll
TTITLE5=Lucille
EXTD=YEAR: 1978
EXTT0=
EXTT1=
EXTT2=
EXTT3=
EXTT4=
EXTT5=
PLAYORDER=
